<svg xmlns="http://www.w3.org/2000/svg" viewBox="0 0 33.11 33.18"><defs><style>.cls-1{fill:#fff;}</style></defs><g id="Capa_2" data-name="Capa 2"><g id="Capa_1-2" data-name="Capa 1"><path class="cls-1" d="M0,18.37V14.72c.07-.35.15-.7.21-1.06a16.58,16.58,0,1,1,20.67,18.9c-1.06.29-2.17.42-3.26.62H15.43a1.38,1.38,0,0,0-.29-.08A16.57,16.57,0,0,1,.52,20.81C.3,20,.17,19.18,0,18.37Zm30.5-1.8a14,14,0,1,0-13.86,14A14,14,0,0,0,30.5,16.57Z"/><path class="cls-1" d="M10.45,16.18V8.06a3.68,3.68,0,0,1,.06-.57,1,1,0,0,1,1.67-.83c.64.34,1.28.7,1.9,1.07,4.08,2.4,8.17,4.8,12.23,7.22a2.31,2.31,0,0,1,1,1c.22.52-.12,1-.61,1.23C24.79,18.25,22.93,19.4,21,20.5c-2.91,1.69-5.84,3.34-8.74,5-.8.47-1.77.27-1.81-.87,0-.68-.06-1.35-.07-2V16.18Z"/></g></g></svg>