<svg xmlns="http://www.w3.org/2000/svg" viewBox="0 0 35.91 29.58"><defs><style>.cls-1{fill:#fff}</style></defs><g id="Capa_2" data-name="Capa 2"><g id="Capa_1-2" data-name="Capa 1"><path d="M11.61,29.58H11c-.24,0-.48-.09-.72-.1a20.5,20.5,0,0,1-8.14-2C1.43,27.17.72,26.76,0,26.38l0-.18a15.09,15.09,0,0,0,10.64-3.07,7.75,7.75,0,0,1-6.91-5.25H6.81C3,16.17.74,13.18,1.28,10.57l2.88.77.1-.22a7.57,7.57,0,0,1-2.85-4.4A7.33,7.33,0,0,1,2.24,1.4a21.38,21.38,0,0,0,15.3,7.74c0-.37-.05-.61-.08-.85A7.51,7.51,0,0,1,21.21,1a7.36,7.36,0,0,1,8.32.73A1.8,1.8,0,0,0,31.65,2c1-.42,2.1-.8,3.23-1.22a7.46,7.46,0,0,1-2.74,3.68l.1.16,3.67-1A12.48,12.48,0,0,1,33,6.8a1.74,1.74,0,0,0-.71,1.41,30.15,30.15,0,0,1-.76,5.64C29.17,21.92,24,27.18,15.67,29.05,14.35,29.35,13,29.41,11.61,29.58Z" class="cls-1"/></g></g></svg>